# xmcd CD database file
#
# Track frame offsets:
#	150
#	21857
#	39947
#	65512
#	87680
#	106950
#	136160
#	153292
#	186675
#
# Disc length: 2710 seconds
#
# Revision: 4
# Processed by: cddbd v1.4PL0 Copyright (c) Steve Scherf et al.
# Submitted via: CDex 1.50Beta7
#
DISCID=770a9409
DTITLE=Monty Alexander Quintet - Ivory and Steel
DYEAR=1980
DGENRE=Jazz
TTITLE0=Happy Lypso
TTITLE1=Cavatina
TTITLE2=Montevideo
TTITLE3=S. K. J.
TTITLE4=That's The Way It Is
TTITLE5=Work Song
TTITLE6=Medley: Impressions/So What
TTITLE7=Stella By Starlight
TTITLE8=Street Life
EXTD=YEAR: 1980
EXTT0=
EXTT1=
EXTT2=
EXTT3=
EXTT4=
EXTT5=
EXTT6=
EXTT7=
EXTT8=
PLAYORDER=
